<svg xmlns="http://www.w3.org/2000/svg" viewBox="0 0 554.52 785.94"><defs><style>.cls-1{isolation:isolate;}.cls-2{opacity:0.38;}.cls-11,.cls-2{mix-blend-mode:darken;}.cls-3,.cls-4{fill:#e6e6e6;}.cls-13,.cls-14,.cls-4{stroke:#000;stroke-miterlimit:10;}.cls-5{fill:#ccc;}.cls-6{fill:#a4ddda;}.cls-7{fill:#29abe2;}.cls-8{fill:#fcf6be;}.cls-14,.cls-9{fill:#ef6f6f;}.cls-10{fill:#fff;opacity:0.44;mix-blend-mode:lighten;}.cls-11{opacity:0.35;}.cls-12{fill:#f2cccc;}.cls-13{fill:none;stroke-width:10px;}.cls-14{stroke-width:4px;}</style></defs><g class="cls-1"><g id="Layer_2" data-name="Layer 2"><g id="back"><g class="cls-2"><path d="M277.26,785.94a10,10,0,0,1-7.84-3.79,163.54,163.54,0,0,1-23.24-41.08,9.74,9.74,0,0,1-1.33.24,10.28,10.28,0,0,1-1.1.06,10,10,0,0,1-8.21-4.28,106.05,106.05,0,0,1-16.75-40.48,9.92,9.92,0,0,1-5.23-1.76,10,10,0,0,1-4-10.68c.11-.52,2-9.65-1-25.7a70.48,70.48,0,0,1-1.18-11c-6.52-5.37-15.29-14.86-23.31-31-14.86-29.9-32.55-57.63-47.43-74.41-8.94,4.24-20.45,6.39-34.28,6.39-24.88,0-44.94-13.68-58-39.56A129,129,0,0,1,32.5,471.67a10,10,0,0,1,2-7.44,76.07,76.07,0,0,1-4.84-18.76A161.1,161.1,0,0,1,3.47,428,10,10,0,0,1,10,410.44h.62c5,0,10-2.69,14.08-5.8-12-4-16-10.83-16.86-12.42a10,10,0,0,1,8.91-14.54,9.69,9.69,0,0,1,2.68.37c1.34-.19,8-1.74,20.48-14.92,8.58-9,13.89-18.52,17.78-26.35-16.59-6.56-27.32-14.16-32-22.61a17.89,17.89,0,0,1-2.18-7.62c-2.61-13.7,3.58-31.17,17-48,14-17.57,38.66-36.34,65.67-36.34a117.79,117.79,0,0,1,16.55,1.12c-.55-32-8.15-99.73-12.36-137.21l0-.36c-1-9-1.89-16.87-2.47-22.37-1.14-10.95-1.32-12.63,1.22-16,5.91-8.16,22.74-23.59,69.22-35.36A411.93,411.93,0,0,1,273.53,0c1.94,0,3.21,0,3.73,0s1.79,0,3.73,0a412,412,0,0,1,95.16,12c46.47,11.77,63.3,27.2,69.2,35.35l.06.08c2.49,3.33,2.32,5,1.17,16-.58,5.49-1.45,13.29-2.46,22.32l-.05.41c-4.21,37.48-11.81,105.24-12.36,137.21a117.9,117.9,0,0,1,16.55-1.12c27,0,51.64,18.77,65.67,36.34,13.46,16.84,19.65,34.3,17,48a17.8,17.8,0,0,1-2.18,7.61c-4.63,8.45-15.37,16.05-31.95,22.61,3.88,7.82,9.19,17.31,17.77,26.35,12.52,13.18,19.15,14.74,20.48,14.92a9.69,9.69,0,0,1,2.68-.37,10,10,0,0,1,8.92,14.54c-.81,1.59-4.9,8.42-16.87,12.42,4.07,3.11,9,5.8,14.09,5.8h.62A10,10,0,0,1,551.05,428a164.25,164.25,0,0,1-28.94,18.9,64.6,64.6,0,0,1-2.85,16.48,10,10,0,0,1,2.76,8.27A128.3,128.3,0,0,1,510.2,509c-13.07,25.88-33.13,39.56-58,39.56-13.83,0-25.33-2.15-34.27-6.39-14.89,16.78-32.58,44.51-47.44,74.41-8,16.09-16.76,25.57-23.26,30.94a74.55,74.55,0,0,1-1.23,11c-3.07,16.49-1,25.67-1,25.76a10,10,0,0,1-9.25,12.38A105.87,105.87,0,0,1,319,737.09a10,10,0,0,1-8.2,4.28,10.32,10.32,0,0,1-1.11-.06,9.45,9.45,0,0,1-1.39-.26c-4.72,11.92-12.15,27.12-23.17,41.09a9.93,9.93,0,0,1-7.84,3.8Z"/></g></g><g id="color"><path class="cls-3" d="M223.9,678.33l-1.23,1.86S224,683.77,223.9,678.33Z"/><path class="cls-4" d="M124.06,473.69S98.12,480.5,90.5,428.11a517.42,517.42,0,0,1-4.7-97L68.5,349.34,33,389l21,8.58L25,426.88l36,16.81-16,4.5,9,25,13,13.18H48.5s17,44.82,49.5,48.32,45.69-12,45.69-12L133,471.59Z"/><path class="cls-5" d="M143.69,243.69s-11.14-8.2-44.34-5.5-46.16,46.68-46.16,46.68S131.5,281.69,173,300.69s104.37,30.39,104.37,30.39V15.19c-109.37,0-153.31,41-153.31,41Z"/><path class="cls-3" d="M332.08,680.19l-1.23-1.86C330.79,683.77,332.08,680.19,332.08,680.19Z"/><path class="cls-3" d="M327.38,616.1c-3.37-10.59-5-10.08-5-10.08-4.58,9.34-46.9,10.59-46.9,10.59h0c-7.84-.38-39.18-2.43-43.19-10.59,0,0-1.59-.51-5,10.08s-5.87,35.09-4.12,52.84c.45,4.56.63,7.51.65,9.39l7.48-11.39s-3.84,27.75,12.39,50.5l8-7.5s12.75,46,19.75,52.75,5.8,4.75,5.8,4.75V755.2l.15,12.24s-1.2,2,5.8-4.75S303,709.94,303,709.94l8,7.5c16.23-22.75,12.39-50.5,12.39-50.5l7.48,11.39c0-1.88.2-4.83.65-9.39C333.25,651.19,330.75,626.69,327.38,616.1Z"/><path class="cls-4" d="M500.75,397.6l21-8.58-35.53-39.68L469,331.08a517.42,517.42,0,0,1-4.7,97c-7.62,52.39-33.56,45.58-33.56,45.58l-8.91-2.1-10.72,51.1s13.19,15.5,45.69,12,49.5-48.32,49.5-48.32h-18.5l13-13.18,9-25-16-4.5,36-16.81Z"/><path class="cls-6" d="M469.75,333.69l-72.53-25L310,323.19l-35.52,7.28L240,323.19l-84.63-14.48L85,333.69a565.45,565.45,0,0,1,2.06,63.91c-.94,33.92,16.44,66.79,24.85,74s21.06,0,21.06,0l5.53,40.66s46.5,59.94,58,90.44,26.17,32,26.17,32A86.84,86.84,0,0,1,225,620.78c1.62-5.54,6.38-14,6.38-14l40.13,8.69v1.27l3-.63,2.88.63v-1.23l41.54-8.73s4.9,8.51,6.58,14a85.07,85.07,0,0,1,2.39,13.91s15.12-1.5,27-32,59.77-90.44,59.77-90.44l5.7-40.66s13,7.2,21.7,0,26.58-40.07,25.61-74A548.87,548.87,0,0,1,469.75,333.69Z"/><path class="cls-5" d="M455.4,238.19c-33.2-2.7-44.34,5.5-44.34,5.5l19.63-187.5s-43.94-41-153.32-41V331.08s62.88-11.39,104.38-30.39,119.81-15.82,119.81-15.82S488.61,240.89,455.4,238.19Z"/><path class="cls-7" d="M277.37,168.69S159,173.4,137,179.54l1.86,63.18,93.53,51.47A94.51,94.51,0,0,0,276.28,305h0a102.44,102.44,0,0,0,46.11-10.84l93.53-51.47,1.86-63.18C395.8,173.4,277.37,168.69,277.37,168.69Z"/><path class="cls-8" d="M318.25,581.19l-24.5,7.25-43.38-1.25-21.12-9.75,2.13,29.29,14.37,7.46,38,4.75,36.58-10.56S324.75,586.69,318.25,581.19Z"/><path class="cls-9" d="M294.16,555.36s-34.5-4.17-37.16-4.84-18.67,5.74-18.67,5.74,7,25.1,7.83,25.76,28.5,10.84,46.17,6.38,19.83-15.71,19.83-15.71C318.83,557.69,294.16,555.36,294.16,555.36Z"/><path class="cls-8" d="M212.62,508.31l-6.29-.5c1.33,8.63,20.17,53.52,20.17,53.52L240,547.69c13.27,6.37,71.1,2,71.1,2s3.63,14.87,12.86,11,24.44-54.75,24.44-54.75-42.3,16.25-67.42,19.75S212.62,508.31,212.62,508.31Z"/></g><g id="highligt"><path class="cls-10" d="M252.83,384.69c17.5-9.25,11.86-31.32,11.86-31.32-29.3,10.18-50.19-24.18-81.19-19.68s-39.7,23.65-39.7,23.65,11.2-2.15,29.7-5.15S235.33,393.94,252.83,384.69Z"/><path class="cls-10" d="M225.25,428.26c-52.52,17-91.25-25.94-90.59-37.74s-4.37-30.9-4.37-30.9-9.29,38.07-6.23,52.57,20.69,27.5,35.94,42,5.75,60.5,5.75,60.5,7.25-11,13.59-34C190.29,440.89,221.09,429.61,225.25,428.26Z"/><path class="cls-10" d="M225.25,428.26l.48-.15Z"/><path class="cls-10" d="M214.07,577.19c-7.68-31.5-28.82-55.5-28.82-55.5,5.5,16.25,13.25,70.33,17.5,88.22S222.21,631,222.21,631a58.28,58.28,0,0,1,3.25-11.32c2.45-6.2,5-11.28,5-11.28S221.75,608.69,214.07,577.19Z"/><path class="cls-10" d="M302.16,384.69c17.5,9.25,60.84-35.5,79.34-32.5s29.69,5.15,29.69,5.15-8.69-19.15-39.69-23.65-51.89,29.86-81.2,19.68C290.3,353.37,284.66,375.44,302.16,384.69Z"/><path class="cls-10" d="M311.7,447.64c-15.55-7.31-24.82,11.09-24.82,11.09,1.27-5.62,12.62-17.79,9.12-30.62s-18.38-42.67-18.27-58.76c.12,16.09-15.23,45.92-18.73,58.76s7.85,25,9.11,30.62c0,0-9.27-18.4-24.82-11.09s-11.91,17.05-11.91,17.05l35.05,32.41,10.1,1.22v.12l.5-.06.46.06v-.11l11.08-1.23,35.05-32.41S327.25,454.94,311.7,447.64Z"/><path class="cls-10" d="M329.74,428.26l-.48-.15Z"/><path class="cls-10" d="M420.33,390.52c.67,11.8-38.07,54.73-90.59,37.74,4.17,1.35,35,12.63,45.91,52.39,6.35,23,13.6,34,13.6,34s-9.5-46,5.75-60.5,32.88-27.5,35.94-42-6.23-52.57-6.23-52.57S419.66,378.69,420.33,390.52Z"/><path class="cls-10" d="M289.33,627.37a22.22,22.22,0,0,1,.18,4.08,37.59,37.59,0,0,0-1.76-4.08,58.68,58.68,0,0,1-2.84,13.53c-1.57-1.2-7.46-4.62-7.46-4.62a72.9,72.9,0,0,0-7.37,4.62,58.27,58.27,0,0,1-2.83-13.53,38.65,38.65,0,0,0-1.77,4.08,22.22,22.22,0,0,1,.18-4.08c-10.83,5.43-11.41,27.07-11.41,27.07l9.09-2.32a12.35,12.35,0,0,0,2.23,5.21c0,1.58-.06,3.57-.11,6.11-.19,10.75,8.79,23.43,8.79,23.43l3.25-12.56,3.25,12.56s9-12.68,8.78-23.43c0-2.54-.08-4.53-.1-6.11a12.48,12.48,0,0,0,2.23-5.21l9.09,2.32S300.16,632.8,289.33,627.37Z"/><path class="cls-10" d="M324.51,608.38s2.57,5.08,5,11.28A58.28,58.28,0,0,1,332.79,631s15.21-3.18,19.46-21.07,12-72,17.5-88.22c0,0-21.15,24-28.82,55.5S324.51,608.38,324.51,608.38Z"/><path class="cls-10" d="M451.49,236.86c-33.13-5.48-51.08,10.23-97.8,39.16-38.46-4.43-35.47-164-33.53-186,2-22.66,2.48-56.66,39.59-59.79-19.74-11.12-82-15-82-15v.15c-8.3.55-64.23,4.61-82.49,14.89,37.12,3.13,37.59,37.13,39.59,59.79,1.94,22,4.93,181.57-33.53,186-46.71-28.93-64.66-44.64-97.79-39.16-33.76,5.58-43.26,41.58-43.26,41.58,15.75-15,39.26-26.25,56.88-25.75s55.12,19.25,84.12,35,45.53,25.41,76,25.5h.39c30.49-.09,47.22-9.82,76.1-25.5s66.5-34.5,84.12-35,41.13,10.75,56.88,25.75C494.75,278.44,485.25,242.44,451.49,236.86Z"/></g><g id="shadow"><g class="cls-11"><path d="M247.75,370.19c-17.25-3-29.5-19.75-56-26s-47.95,13.15-47.95,13.15,19.95-6.83,30.45-.62,13.13,19.72,13.13,19.72a35.82,35.82,0,0,1,26.12,6.5c13,9.25,14.25,12.25,14.25,12.25s32.75,4.25,36.75-10.5,0-31.5,0-31.5S265,373.19,247.75,370.19Z"/><path d="M197,401.69l-15.81-22-4.69-28-32.7,5.65s14.45,7.6,14.2,19.1,8.5,30.75,24,36,33-1.25,33-1.25C216.25,402.69,197,401.69,197,401.69Z"/><path d="M115.25,390.94l6.5-15.75-18.24-25.85-19.17-7.65,6.16,86.42L108,471.7s12.29,3.07,5.78-3.26-10-26-13.53-45.5-2-50.61-2-50.61C103.75,373,115.25,390.94,115.25,390.94Z"/><path d="M185.5,522.74c2.5,10-1,26-1,26s-4-4.5-16.5-25.25-9.25-39.5-9.25-39.5c5.25,13.75,7,30.75,7,30.75,5-16-1-54.5-1-54.5l-23.5-17.25-6.73,40L138,519.69l53,71s10.23,28,8.23-.73S185.5,522.74,185.5,522.74Z"/><path d="M208.33,595.52c-3.33-19-8.67-28.5-11-37.5a388,388,0,0,0,1,42.34c1.83,23.83,23.26,34.09,23.26,34.09l4.14-15.86S211.66,614.52,208.33,595.52Z"/><path d="M289.16,660.52,282.5,655s-8.67,33-8.67,33.67-8.33-18.15-8.33-18.15l.16-19-9.33,2-1.83-12,11.16-14.15a59.62,59.62,0,0,0-8.68,7.84c-4,4.45-8,10.37-8.46,16.65l2.81-1.84s-2,7,2.5,20.52c0,0,5.17-3.85,6.67-4.68,0,0,2.16,32.83,18.5,57.5,0,0,2.83-6,1.33-14.84s3.83-35.16,5.83-40.83l8,3.67s4.74-16.18.54-29.67Z"/><path d="M253.27,709.07l.09-.13S253.32,709,253.27,709.07Z"/><path d="M203.32,481.94c-.21.31-.32.5-.32.5C203.1,482.27,203.21,482.11,203.32,481.94Z"/><path d="M124.06,476.59c-8.92,5-17.23-13.57-27.35-30.18S85,333.69,85,333.69l-7.13,8s3.29,17.67,0,55.91,10,63.09,19,82.09,24.92,22,24.92,22c-5.42,20-44.25,18.58-59.56,5.5,5.37,18.5,29.93,26.39,48.81,26.17s25.5-10.44,25.5-10.44l-2-31.18S133,471.59,124.06,476.59Z"/><path d="M148.75,308.71c-31,14.73-35.75,27.23-35.75,27.23l17,17c1.5-14,24.51-21.5,57.38-20.25s46.62,19,90.11,19l-.12-23.5S179.75,294,148.75,308.71Z"/><path d="M363,344.19c-26.5,6.25-38.75,23-56,26s-16.75-17-16.75-17-4,16.75,0,31.5S327,395.19,327,395.19s1.25-3,14.25-12.25a35.82,35.82,0,0,1,26.12-6.5s2.63-13.5,13.13-19.72,30.45.62,30.45.62S389.5,337.94,363,344.19Z"/><path d="M373.56,379.69l-15.81,22s-19.25,1-18,9.5c0,0,17.5,6.5,33,1.25s24.25-24.5,24-36,14.2-19.1,14.2-19.1l-32.7-5.65Z"/><path d="M433,375.19l6.5,15.75s11.5-18,17-18.61c0,0,1.5,31.11-2,50.61s-7,39.17-13.53,45.5,5.78,3.26,5.78,3.26l17.5-43.59,6.15-86.42-19.16,7.65Z"/><path d="M390,460.19s-6,38.5-1,54.5c0,0,1.75-17,7-30.75,0,0,3.25,18.75-9.25,39.5s-16.5,25.25-16.5,25.25-3.5-15.9-1-26c0,0-11.75,38.45-13.75,67.2s8.23.73,8.23.73l53-71L420.23,483l-6.73-40Z"/><path d="M346.42,595.52c-3.33,19-17.4,23.07-17.4,23.07l4.14,15.86s21.43-10.26,23.26-34.09a388,388,0,0,0,1-42.34C355.09,567,349.75,576.52,346.42,595.52Z"/><path d="M343.61,507.86c-20.08,13.45-64.36,16-66.25,16.16h-.13c-1.89-.11-46-2.71-66.09-16.15a1.23,1.23,0,0,0-1.69.27l-2.67,3.52a1.24,1.24,0,0,0-.14,1.27l6.21,13.55a1.24,1.24,0,0,0,2.31-.12h0c1.17-3.67,4.52-4.5,7.51-4.17,2.49.28,6.87,4,8.27,5.26a1.18,1.18,0,0,0,.91.31c1.12-.07,4.84.09,17.15,2.26a220.51,220.51,0,0,0,28.33,3.34h.08A220.36,220.36,0,0,0,305.75,530c12.3-2.17,16-2.33,17.15-2.26a1.18,1.18,0,0,0,.91-.31c1.4-1.25,5.78-5,8.27-5.26,3-.33,6.34.5,7.51,4.17h0a1.24,1.24,0,0,0,2.31.12l6.21-13.55a1.24,1.24,0,0,0-.14-1.27l-2.67-3.52A1.24,1.24,0,0,0,343.61,507.86Z"/><path d="M334.25,634.69c-4.78-9.66-9.19-24.78-9.19-24.78s1.18,35-1.69,46.28l-3.87-3.75s-3.49,39-11,51.75c0,0-7.75-6.5-9.75-6.75,0,0-6.22,29-21.36,47-15.14-18-21.39-47-21.39-47-2,.25-9.75,6.75-9.75,6.75-7.51-12.72-11-51.75-11-51.75l-3.87,3.75c-2.87-11.25-1.69-46.28-1.69-46.28s-4.41,15.12-9.19,24.78,3.28,40.67,3.28,40.67l5.67-10.92s1.93,2.5,1.93,20,11.87,40.75,11.87,40.75l10-16.12c0-.11.09-.13.09-.13l-.09.13c-.24.6-.66,3.74,4,19.37,4.94,16.56,17.59,34.7,20.2,38.33v.67l.23-.34.24.34v-.67c2.5-3.65,14.58-21.78,19.52-38.33,4.67-15.63,4.25-18.77,4-19.37l-.09-.13s0,0,.09.13l10,16.12s11.87-23.25,11.87-40.75,1.93-20,1.93-20L331,675.36S339,644.35,334.25,634.69Z"/><path d="M301.39,708.94l.09.13C301.43,709,301.39,708.94,301.39,708.94Z"/><path d="M327,454.94l-2,9.25-48.2,42.22-47.05-42.22-2-9.25s-15.86,13.42-24.43,27c1.27-1.89,6.42-8.4,15.66-6.25,10.77,2.5,33,37,39.77,41.25s18.62,3.85,18.62,3.85,11.88.4,18.63-3.85,29-38.75,39.77-41.25c9.24-2.15,14.39,4.36,15.66,6.25C342.85,468.36,327,454.94,327,454.94Z"/><path d="M351.43,481.94c.11.17.22.33.32.5C351.75,482.44,351.64,482.25,351.43,481.94Z"/><path d="M433,501.69s15.92-3,24.92-22,22.25-43.84,19-82.09,0-55.91,0-55.91l-7.13-8s-1.58,96.1-11.71,112.72-18.43,35.18-27.35,30.18-10.46,15.15-10.46,15.15l-2,31.18s6.62,10.21,25.5,10.44,43.44-7.67,48.81-26.17C477.25,520.27,438.42,521.69,433,501.69Z"/><path d="M406,308.71C375,294,277.37,328.19,277.37,328.19l-.51,23.5c43.48,0,57.64-17.75,90.51-19s55.88,6.25,57.38,20.25l17-17S437,323.44,406,308.71Z"/></g></g><g id="Layer_2-2" data-name="Layer 2"><path d="M329.78,642.12c-.5,10.75-1.63,20.75-1.63,20.75l-7.25-8c2,34.88-10.12,58-10.12,58l-11.5-14c-.69,23.14-9.78,51.82-22,63.82-11.14-13-21.36-40.68-22.05-63.82l-11.5,14s-12.13-23.12-10.12-58l-7.25,8s-1.13-10-1.63-20.75c-.51-11,5.32-33.09,5.49-33.74-5.26,8.5-16.35,24.26-11.88,48.25,3.64,19.49.89,30,.89,30a20.78,20.78,0,0,0,7.63-13.25s-2.13,30.75,16.87,58c0,0,2.75-6.75,6.25-10.5,0,0,7.25,29.82,27.26,55.07,19.74-25,27.27-55.07,27.27-55.07,3.5,3.75,6.25,10.5,6.25,10.5,19-27.25,16.87-58,16.87-58a20.73,20.73,0,0,0,7.63,13.25s-2.75-10.5.88-30c4.48-24-5.63-38.26-10.88-46.76C325.28,609.87,330.3,631,329.78,642.12Z"/><path d="M287.83,627.37C294,643,287,655.12,287,655.12a41,41,0,0,0-8.17-9.75c.83,17-6,37.5-6,37.5-9-19.33-4.5-34.66-4.5-34.66a81.75,81.75,0,0,0-11.17,2c-.5-5.84,2.34-16.34,8.67-22.84C259,628,250.37,644,250.37,644a11.9,11.9,0,0,1,3.46-2c-2.83,8.33-1,17.33-1,17.33,2.67-2.66,8.67-4.33,8.67-4.33s-2,12.33,4.66,31.5,14,27.17,14,27.17-6.5-15.34-3-24.17,7.17-29,7.17-29c2.5,3.17,9.17,5,9.17,5C299.5,634,287.83,627.37,287.83,627.37Z"/><path d="M253.16,474.77c-11.91-11.58-19.33-15-19.33-15,8.67-13.66,21.95-13.17,21.95-13.17s-8.59-10.45-21-3c-22.75,13.71-32,39.31-32,39.31,11.5-16,23.75-22.17,23.75-22.17s-2.25,5.49-2,6.17,9.25,6.63,21,16.92,20.87,28.23,22.87,28.34,8.86,0,8.86,0V491.16a79.77,79.77,0,0,0-9,.47S265.47,486.73,253.16,474.77Z"/><path d="M203,588.31c-2.5-31.54-18-66.74-18-66.74,5.5,20.12,3.5,49.37,3.5,49.37-15-31.54-44.81-61-44.81-69.25,0-12.67,2.06-51,2.06-51C171.07,472.33,166,515.17,166,515.17s14.5-48.46-4-64-38-35.66-34.5-58.51,4-33.37,0-66.29L111,336.43s6,15.54,4,53.48,16.14,25.42,13,71.43S127.5,517,143.5,534.83,178,581.91,193,612.09s32,34.28,32,34.28V628.54C221,628.54,205.5,619.86,203,588.31Z"/><path d="M251.36,382C229.12,386.83,219,364.37,194,353.37s-50.34,4-50.34,4c16.34-4.66,26.34,4,26.34,4s-7.34,24.67,7.33,38,33.33,10,33.33,10A38.07,38.07,0,0,1,194,419c38.66,1,55.66-19.33,55.66-19.33-3.66,13.33,0,29,0,29s1.31-15.19,13.14-34.35c10.68-17.29,1.86-41,1.86-41S264.28,379.25,251.36,382Z"/><path class="cls-12" d="M195,390.69c15.08,15.35,37.33.35,37.33.35s-29.58-15.92-44.08-23.17C188.28,367.87,183.74,379.21,195,390.69Z"/><path d="M106.26,232.22c-39.33,0-78.4,48.15-72.75,73.15l27-28.09S78.48,240,113.16,240,221,308.71,277.26,308.71v-5c-23.43,0-54-16.84-87.26-37.09C164.87,251.32,145.6,232.22,106.26,232.22Z"/><path d="M180.83,21.71c-51.33,13-62.67,30.33-63.67,31.66s19.46,157.46,15.06,184.9l13.53,9.1S140.66,108.52,131,56.19c0,0,56.38-36.48,146.26-36.48V10S232.16,8.71,180.83,21.71Z"/><path d="M119.83,391.86c-.38-5.13-13.58-15.42-13.58-15.42s-6.42,22.42.39,42.79c6.91,20.65,13.78,26.17,15.44,39.5,0,0,7.08-11.71-5.58-35.37C106.17,404.07,120.37,399,119.83,391.86Z"/><path d="M100.25,530.71c-29-.22-43.5-30.85-47.25-42.05,0,0,5.5,8.45,18.75,8.91S90,490,90,490s-4.25,2.28-14.75,1.71c0,0,6.49-1.58,8.69-4.41C65,484.26,60.19,477,54.66,467.36a46.45,46.45,0,0,1-6.2-18.8c2.79.5,19.08-.67,27.47-4-3.25-.93-30.9-9-45-18.89,0,0,17.7-9.19,32.7-36.69,0,0-15,1-24.5,0,0,0,28-12.58,45.34-55.66l4-7-7.34-8.68c-10.33,6.67-12.87,30.08-34,52.33s-30.41,17.67-30.41,17.67,5,9.83,28.25,9.91c0,0-15.5,23.34-35,22.84A162.43,162.43,0,0,0,49.62,444c-.44-.08-7.12-.54-10.12-.94a69.05,69.05,0,0,0,19,40.34s-13.17-9.56-16.09-13c0,0,8.92,68.15,59.92,68.15,39.63,0,43.42-19,43.42-19L136,515.17S129.25,530.94,100.25,530.71Z"/><path class="cls-13" d="M138.83,179.54s56.2-10.85,138.43-10.85Z"/><path d="M319.75,443.63c-12.42-7.48-21,3-21,3s13.28-.49,21.94,13.17c0,0-7.41,3.42-19.33,15-12.3,12-15.11,16.86-15.11,16.86a79.83,79.83,0,0,0-9-.47v21.05s6.86.1,8.86,0,11.13-18.06,22.88-28.34,20.75-16.23,21-16.92-2-6.17-2-6.17,12.25,6.17,23.75,22.17C351.75,482.94,342.5,457.34,319.75,443.63Z"/><path d="M427,326.37c-4,32.92-3.5,43.43,0,66.29s-16,43-34.5,58.51-4,64-4,64-5.07-42.84,20.25-64.48c0,0,2.05,38.33,2.05,51,0,8.26-29.8,37.71-44.8,69.25,0,0-2-29.25,3.5-49.37,0,0-15.5,35.2-18,66.74s-18,40.23-22,40.23v17.83s17-4.11,32-34.28S395,552.66,411,534.83s18.73-27.49,15.54-73.49,15-33.48,13-71.43,4-53.48,4-53.48Z"/><path d="M360.5,353.37c-25,11-35.1,33.46-57.34,28.67-12.92-2.79-13.33-28.67-13.33-28.67s-8.81,23.7,1.86,41c11.84,19.16,13.14,34.35,13.14,34.35s3.67-15.67,0-29c0,0,17,20.33,55.67,19.33a38.08,38.08,0,0,1-16.67-9.67s18.67,3.34,33.33-10,7.34-38,7.34-38,10-8.66,26.33-4C410.83,357.37,385.5,342.37,360.5,353.37Z"/><path class="cls-12" d="M322.16,391s22.25,15,37.34-.35c11.28-11.48,6.74-22.82,6.74-22.82C351.75,375.12,322.16,391,322.16,391Z"/><path d="M353.78,491.74s3.37,9.48-27.5,20.51-49,10-49,10-18.14,1-49-10-27.5-20.51-27.5-20.51c-13.75,1.6-15.25,11.2-15.25,19.55,8.33-3.74,13.66.07,21.66,15.62s15,42.36,16.67,60,4.33,23.77,14.33,29,39.1,4.87,39.1,4.87,29.1.31,39.1-4.87,12.67-11.28,14.33-29,8.67-44.49,16.67-60,13.33-19.36,21.67-15.62C369,502.94,367.53,493.34,353.78,491.74Zm-35.42,115s-15.53,5.49-41.1,5.49-41.1-5.49-41.1-5.49c-1-9.44,4.67-21,4.67-21a86,86,0,0,1,10.7,17.72c0-2.74,2.12-10.68,2.12-10.68,8,1.53,23.61,2.68,23.61,2.68s15.61-1.15,23.61-2.68c0,0,2.13,7.94,2.13,10.68a85.64,85.64,0,0,1,10.69-17.72S319.36,597.31,318.36,606.75Zm-41.1-34.13a14.58,14.58,0,0,1,5.77-8.53c4.66-3.05,19.66-3.66,23-1.83s3,16.45-10,20.72-13.53,3.35-18.77,3.35-5.76.92-18.76-3.35-13.34-18.89-10-20.72,18.33-1.22,23,1.83A14.59,14.59,0,0,1,277.26,572.62Zm48.3-19.51s-3.4-15.92-2.42-25.67c0,0-1.23,10.11-3.37,14.07,0,0-15.88,5.76-44,5.8-27.28-.2-41-5.8-41-5.8-2.15-4-3.38-14.07-3.38-14.07,1,9.75-2.42,25.67-2.42,25.67-12.2-14.62-18.81-43.42-18.81-43.42C226.71,525.5,277.3,529,277.3,529s50.51-3.48,67.08-19.29C344.38,509.69,337.76,538.49,325.56,553.11Z"/><path d="M429,263.87c-51.5,5-87,56-151.77,56s-100.26-51-151.76-56-99.5,30-91,45.5,48.36,25,48.36,25c-8.14,5-1.53,13.82-.53,27.82s.58,62.16,7,78.74c5,12.93,16.54,40.34,31.29,40.34,18.67,0,15.88-37.9,15.88-37.9l-8.89-3.68S131,471.36,121,470.86s-10.74-7.36-17.49-21C96.43,435.55,94,417,94.08,400.37c.14-18.18-2.58-51-2.58-51,11.16,6.52,20.83,18.53,23.83,36.18,3.66-15.25,3.92-47.9,3.92-47.9,10.75-13.25,41.5-19,68.13-17s64.87,14.75,89.88,14.75,63.25-12.75,89.89-14.75,57.38,3.75,68.13,17c0,0,.25,32.65,3.91,47.9,3-17.65,12.67-29.66,23.84-36.18,0,0-2.73,32.85-2.59,51,.13,16.58-2.35,35.18-9.43,49.49-6.75,13.64-7.48,20.5-17.48,21s-6.62-31.17-6.62-31.17L418,443.37s-2.79,37.9,15.88,37.9c14.75,0,26.28-27.41,31.28-40.34,6.42-16.58,6-64.74,7-78.74s7.61-22.82-.53-27.82c0,0,39.87-9.5,48.37-25S480.53,258.87,429,263.87Z"/><path d="M448.26,232.22c-39.33,0-58.61,19.1-83.73,34.4-33.25,20.25-63.84,37.09-87.27,37.09v5c56.24,0,129.43-68.67,164.11-68.67s52.68,37.24,52.68,37.24l27,28.09C526.66,280.37,487.59,232.22,448.26,232.22Z"/><path d="M437.36,53.37c-1-1.33-12.33-18.66-63.67-31.66S277.26,10,277.26,10v9.67c89.89,0,146.27,36.48,146.27,36.48-9.67,52.33-14.75,191.18-14.75,191.18l13.52-9.1C417.91,210.83,438.36,54.71,437.36,53.37Z"/><path d="M434.69,391.86c-.54,7.16,13.66,12.21,3.34,31.5-12.67,23.66-5.59,35.37-5.59,35.37,1.67-13.33,8.54-18.85,15.44-39.5,6.81-20.37.4-42.79.4-42.79S435.08,386.73,434.69,391.86Z"/><path d="M509.53,397.6c23.25-.08,28.25-9.91,28.25-9.91s-9.29,4.59-30.42-17.67-23.67-45.66-34-52.33L466,326.37l4,7C487.36,376.44,515.36,389,515.36,389c-9.5,1-24.5,0-24.5,0,15,27.5,32.71,36.69,32.71,36.69-14.07,9.88-41.73,18-45,18.89,8.38,3.29,24.68,4.46,27.47,4a46.57,46.57,0,0,1-6.21,18.8c-5.52,9.6-10.36,16.9-29.27,20,2.19,2.83,8.69,4.41,8.69,4.41-10.5.57-14.75-1.71-14.75-1.71s5,8,18.25,7.54,18.75-8.91,18.75-8.91c-3.75,11.2-18.25,41.83-47.25,42.05s-35.75-15.54-35.75-15.54l-9.75,4.34s3.78,19,43.41,19c51,0,59.92-68.15,59.92-68.15-2.92,3.43-16.08,13-16.08,13a55.47,55.47,0,0,0,16.08-39.67,72,72,0,0,1-7.21.27,162.62,162.62,0,0,0,39.63-23.52C525,420.94,509.53,397.6,509.53,397.6Z"/><path class="cls-13" d="M415.69,179.54s-56.19-10.85-138.43-10.85Z"/></g><g id="Layer_6" data-name="Layer 6"><path class="cls-14" d="M254.43,225.82a29.29,29.29,0,0,1-6.48,19q-5.73,7.19-16.09,7.55c-1.32,0-5,.08-10.93.08-1.12,0-2.81,0-5.06-.11s-3.94-.11-5.06-.11c-.66,0-1-.29-1-.86q0-4.09.29-12.3t.29-12.29q0-4.27-.29-12.82t-.29-12.77c0-.53.33-.83,1-.93a74,74,0,0,1,8-.3q10.56,0,13.68.33,8.13.9,12.72,4.47A22.39,22.39,0,0,1,252,214.1,29.9,29.9,0,0,1,254.43,225.82Zm-13.14,0a15.09,15.09,0,0,0-3.46-10.27,11.54,11.54,0,0,0-9.26-4.13q-5.28,0-5.28,1.53,0,2.19-.07,6.6t-.06,6.6q0,2.16.06,6.5c.05,2.89.07,5.06.07,6.53q0,1.59,5.49,1.59a11.28,11.28,0,0,0,9.33-4.27Q241.29,232.44,241.29,225.82Z"/><path class="cls-14" d="M302.92,219.9q0,9-4.35,14.59-4.67,5.91-12.86,5.91c-.91,0-2.29-.05-4.13-.16s-3.22-.17-4.13-.17-1.48.46-1.48,1.37c0,1.15.11,2.84.31,5.1s.31,3.94.31,5.06c0,.57-.24.86-.72.86-1.4,0-3.49-.05-6.28-.13s-4.88-.13-6.27-.13q-1,0-1-1.08,0-4.14.12-12.41t.12-12.41q0-11.67-.93-24.55l0-.52c-.05-.47.29-.76,1-.86a114.63,114.63,0,0,1,11.79-.37q5.38,0,10.32.15,8.13.27,13.1,5.54Q302.92,211.14,302.92,219.9Zm-13.68.6q0-8.67-7.78-8.67c-3.66,0-5.58.23-5.76.67s-.24,3.19-.24,8.6c0,.76,0,1.9.08,3.4s.09,2.63.09,3.4q0,.75,6.17.75Q289.24,228.65,289.24,220.5Z"/><path class="cls-14" d="M349.77,243.79a2.93,2.93,0,0,1-.72,1.56,20.15,20.15,0,0,1-16.76,8.15,21.54,21.54,0,0,1-17.35-7.93q-6.48-7.66-6.48-19.34,0-11.31,6.34-19.2a20.66,20.66,0,0,1,16.83-8.25q11.12,0,17.42,7.4a2.39,2.39,0,0,1,.69,1.45q0,.7-2.39,5.24a29.8,29.8,0,0,1-3,5.1.88.88,0,0,1-.68.3,9.17,9.17,0,0,1-1.72-1.49,18,18,0,0,0-3.63-2.79,11.56,11.56,0,0,0-5.62-1.49,9.54,9.54,0,0,0-8.06,4.09,15.47,15.47,0,0,0-2.78,9.38,15.72,15.72,0,0,0,2.78,9.48,9.46,9.46,0,0,0,8.06,4.17,12,12,0,0,0,5.65-1.41,17.17,17.17,0,0,0,3.57-2.61,8.79,8.79,0,0,1,1.68-1.41,1,1,0,0,1,.69.41q.54.68,3,4.65A27.42,27.42,0,0,1,349.77,243.79Z"/></g></g></g></svg>